# xmcd CD database file
#
# Track frame offsets:
#	150
#	21697
#	44057
#	60415
#	83167
#	101205
#	122797
#	137810
#	176150
#	197622
#	215487
#
# Disc length: 3205 seconds
#
# Revision: 0
# Processed by: cddbd v1.5PL3 Copyright (c) Steve Scherf et al.
# Submitted via: CDex 1.50
#
DISCID=a90c830b
DTITLE=BORO - BORO Best Collection works 1988-1992
DYEAR=1900
DGENRE=フォークロック
TTITLE0=大阪で生まれた女
TTITLE1=悲しまないで
TTITLE2=ネグレスコ・ホテル
TTITLE3=やさしく愛して
TTITLE4=日本で生まれて
TTITLE5=大阪レイニーデー
TTITLE6=反省なき反逆
TTITLE7=季節のない季節
TTITLE8=AYAKA MY LOVE
TTITLE9=喜びの街と悲しみの街
TTITLE10=大阪で生まれた女（カラオケ）
EXTD=
EXTT0=
EXTT1=
EXTT2=
EXTT3=
EXTT4=
EXTT5=
EXTT6=
EXTT7=
EXTT8=
EXTT9=
EXTT10=
PLAYORDER=
